<mxfile host="app.diagrams.net" modified="2022-04-20T08:39:55.768Z" agent="5.0 (Windows NT 10.0; Win64; x64) AppleWebKit/537.36 (KHTML, like Gecko) Chrome/100.0.4896.88 Safari/537.36" etag="XO0c6ZkT9exR2PA6cMl6" version="17.4.4" type="github" pages="2">
  <diagram id="C5RBs43oDa-KdzZeNtuy" name="Page-1">
    <mxGraphModel dx="1038" dy="547" grid="1" gridSize="10" guides="1" tooltips="1" connect="1" arrows="1" fold="1" page="1" pageScale="1" pageWidth="827" pageHeight="1169" math="0" shadow="0">
      <root>
        <mxCell id="WIyWlLk6GJQsqaUBKTNV-0" />
        <mxCell id="WIyWlLk6GJQsqaUBKTNV-1" parent="WIyWlLk6GJQsqaUBKTNV-0" />
        <mxCell id="zkfFHV4jXpPFQw0GAbJ--0" value="Person" style="swimlane;fontStyle=2;align=center;verticalAlign=top;childLayout=stackLayout;horizontal=1;startSize=26;horizontalStack=0;resizeParent=1;resizeLast=0;collapsible=1;marginBottom=0;rounded=0;shadow=0;strokeWidth=1;" parent="WIyWlLk6GJQsqaUBKTNV-1" vertex="1">
          <mxGeometry x="220" y="120" width="160" height="138" as="geometry">
            <mxRectangle x="230" y="140" width="160" height="26" as="alternateBounds" />
          </mxGeometry>
        </mxCell>
        <mxCell id="zkfFHV4jXpPFQw0GAbJ--1" value="Name" style="text;align=left;verticalAlign=top;spacingLeft=4;spacingRight=4;overflow=hidden;rotatable=0;points=[[0,0.5],[1,0.5]];portConstraint=eastwest;" parent="zkfFHV4jXpPFQw0GAbJ--0" vertex="1">
          <mxGeometry y="26" width="160" height="26" as="geometry" />
        </mxCell>
        <mxCell id="zkfFHV4jXpPFQw0GAbJ--2" value="Phone Number" style="text;align=left;verticalAlign=top;spacingLeft=4;spacingRight=4;overflow=hidden;rotatable=0;points=[[0,0.5],[1,0.5]];portConstraint=eastwest;rounded=0;shadow=0;html=0;" parent="zkfFHV4jXpPFQw0GAbJ--0" vertex="1">
          <mxGeometry y="52" width="160" height="26" as="geometry" />
        </mxCell>
        <mxCell id="zkfFHV4jXpPFQw0GAbJ--3" value="Email Address" style="text;align=left;verticalAlign=top;spacingLeft=4;spacingRight=4;overflow=hidden;rotatable=0;points=[[0,0.5],[1,0.5]];portConstraint=eastwest;rounded=0;shadow=0;html=0;" parent="zkfFHV4jXpPFQw0GAbJ--0" vertex="1">
          <mxGeometry y="78" width="160" height="26" as="geometry" />
        </mxCell>
        <mxCell id="zkfFHV4jXpPFQw0GAbJ--4" value="" style="line;html=1;strokeWidth=1;align=left;verticalAlign=middle;spacingTop=-1;spacingLeft=3;spacingRight=3;rotatable=0;labelPosition=right;points=[];portConstraint=eastwest;" parent="zkfFHV4jXpPFQw0GAbJ--0" vertex="1">
          <mxGeometry y="104" width="160" height="8" as="geometry" />
        </mxCell>
        <mxCell id="zkfFHV4jXpPFQw0GAbJ--5" value="Purchase Parking Pass" style="text;align=left;verticalAlign=top;spacingLeft=4;spacingRight=4;overflow=hidden;rotatable=0;points=[[0,0.5],[1,0.5]];portConstraint=eastwest;" parent="zkfFHV4jXpPFQw0GAbJ--0" vertex="1">
          <mxGeometry y="112" width="160" height="26" as="geometry" />
        </mxCell>
        <mxCell id="zkfFHV4jXpPFQw0GAbJ--6" value="Student" style="swimlane;fontStyle=0;align=center;verticalAlign=top;childLayout=stackLayout;horizontal=1;startSize=26;horizontalStack=0;resizeParent=1;resizeLast=0;collapsible=1;marginBottom=0;rounded=0;shadow=0;strokeWidth=1;" parent="WIyWlLk6GJQsqaUBKTNV-1" vertex="1">
          <mxGeometry x="120" y="360" width="160" height="138" as="geometry">
            <mxRectangle x="130" y="380" width="160" height="26" as="alternateBounds" />
          </mxGeometry>
        </mxCell>
        <mxCell id="zkfFHV4jXpPFQw0GAbJ--7" value="Student Number" style="text;align=left;verticalAlign=top;spacingLeft=4;spacingRight=4;overflow=hidden;rotatable=0;points=[[0,0.5],[1,0.5]];portConstraint=eastwest;" parent="zkfFHV4jXpPFQw0GAbJ--6" vertex="1">
          <mxGeometry y="26" width="160" height="26" as="geometry" />
        </mxCell>
        <mxCell id="zkfFHV4jXpPFQw0GAbJ--8" value="Average Mark" style="text;align=left;verticalAlign=top;spacingLeft=4;spacingRight=4;overflow=hidden;rotatable=0;points=[[0,0.5],[1,0.5]];portConstraint=eastwest;rounded=0;shadow=0;html=0;" parent="zkfFHV4jXpPFQw0GAbJ--6" vertex="1">
          <mxGeometry y="52" width="160" height="26" as="geometry" />
        </mxCell>
        <mxCell id="zkfFHV4jXpPFQw0GAbJ--9" value="" style="line;html=1;strokeWidth=1;align=left;verticalAlign=middle;spacingTop=-1;spacingLeft=3;spacingRight=3;rotatable=0;labelPosition=right;points=[];portConstraint=eastwest;" parent="zkfFHV4jXpPFQw0GAbJ--6" vertex="1">
          <mxGeometry y="78" width="160" height="8" as="geometry" />
        </mxCell>
        <mxCell id="zkfFHV4jXpPFQw0GAbJ--10" value="Is Eligible To Enroll" style="text;align=left;verticalAlign=top;spacingLeft=4;spacingRight=4;overflow=hidden;rotatable=0;points=[[0,0.5],[1,0.5]];portConstraint=eastwest;fontStyle=4" parent="zkfFHV4jXpPFQw0GAbJ--6" vertex="1">
          <mxGeometry y="86" width="160" height="26" as="geometry" />
        </mxCell>
        <mxCell id="zkfFHV4jXpPFQw0GAbJ--11" value="Get Seminars Taken" style="text;align=left;verticalAlign=top;spacingLeft=4;spacingRight=4;overflow=hidden;rotatable=0;points=[[0,0.5],[1,0.5]];portConstraint=eastwest;" parent="zkfFHV4jXpPFQw0GAbJ--6" vertex="1">
          <mxGeometry y="112" width="160" height="26" as="geometry" />
        </mxCell>
        <mxCell id="zkfFHV4jXpPFQw0GAbJ--12" value="" style="endArrow=block;endSize=10;endFill=0;shadow=0;strokeWidth=1;rounded=0;edgeStyle=elbowEdgeStyle;elbow=vertical;" parent="WIyWlLk6GJQsqaUBKTNV-1" source="zkfFHV4jXpPFQw0GAbJ--6" target="zkfFHV4jXpPFQw0GAbJ--0" edge="1">
          <mxGeometry width="160" relative="1" as="geometry">
            <mxPoint x="200" y="203" as="sourcePoint" />
            <mxPoint x="200" y="203" as="targetPoint" />
          </mxGeometry>
        </mxCell>
        <mxCell id="zkfFHV4jXpPFQw0GAbJ--13" value="Professor" style="swimlane;fontStyle=0;align=center;verticalAlign=top;childLayout=stackLayout;horizontal=1;startSize=26;horizontalStack=0;resizeParent=1;resizeLast=0;collapsible=1;marginBottom=0;rounded=0;shadow=0;strokeWidth=1;" parent="WIyWlLk6GJQsqaUBKTNV-1" vertex="1">
          <mxGeometry x="330" y="360" width="160" height="70" as="geometry">
            <mxRectangle x="340" y="380" width="170" height="26" as="alternateBounds" />
          </mxGeometry>
        </mxCell>
        <mxCell id="zkfFHV4jXpPFQw0GAbJ--14" value="Salary" style="text;align=left;verticalAlign=top;spacingLeft=4;spacingRight=4;overflow=hidden;rotatable=0;points=[[0,0.5],[1,0.5]];portConstraint=eastwest;" parent="zkfFHV4jXpPFQw0GAbJ--13" vertex="1">
          <mxGeometry y="26" width="160" height="26" as="geometry" />
        </mxCell>
        <mxCell id="zkfFHV4jXpPFQw0GAbJ--15" value="" style="line;html=1;strokeWidth=1;align=left;verticalAlign=middle;spacingTop=-1;spacingLeft=3;spacingRight=3;rotatable=0;labelPosition=right;points=[];portConstraint=eastwest;" parent="zkfFHV4jXpPFQw0GAbJ--13" vertex="1">
          <mxGeometry y="52" width="160" height="8" as="geometry" />
        </mxCell>
        <mxCell id="zkfFHV4jXpPFQw0GAbJ--16" value="" style="endArrow=block;endSize=10;endFill=0;shadow=0;strokeWidth=1;rounded=0;edgeStyle=elbowEdgeStyle;elbow=vertical;" parent="WIyWlLk6GJQsqaUBKTNV-1" source="zkfFHV4jXpPFQw0GAbJ--13" target="zkfFHV4jXpPFQw0GAbJ--0" edge="1">
          <mxGeometry width="160" relative="1" as="geometry">
            <mxPoint x="210" y="373" as="sourcePoint" />
            <mxPoint x="310" y="271" as="targetPoint" />
          </mxGeometry>
        </mxCell>
        <mxCell id="zkfFHV4jXpPFQw0GAbJ--17" value="Address" style="swimlane;fontStyle=0;align=center;verticalAlign=top;childLayout=stackLayout;horizontal=1;startSize=26;horizontalStack=0;resizeParent=1;resizeLast=0;collapsible=1;marginBottom=0;rounded=0;shadow=0;strokeWidth=1;" parent="WIyWlLk6GJQsqaUBKTNV-1" vertex="1">
          <mxGeometry x="508" y="120" width="160" height="216" as="geometry">
            <mxRectangle x="550" y="140" width="160" height="26" as="alternateBounds" />
          </mxGeometry>
        </mxCell>
        <mxCell id="zkfFHV4jXpPFQw0GAbJ--18" value="Street" style="text;align=left;verticalAlign=top;spacingLeft=4;spacingRight=4;overflow=hidden;rotatable=0;points=[[0,0.5],[1,0.5]];portConstraint=eastwest;" parent="zkfFHV4jXpPFQw0GAbJ--17" vertex="1">
          <mxGeometry y="26" width="160" height="26" as="geometry" />
        </mxCell>
        <mxCell id="zkfFHV4jXpPFQw0GAbJ--19" value="City" style="text;align=left;verticalAlign=top;spacingLeft=4;spacingRight=4;overflow=hidden;rotatable=0;points=[[0,0.5],[1,0.5]];portConstraint=eastwest;rounded=0;shadow=0;html=0;" parent="zkfFHV4jXpPFQw0GAbJ--17" vertex="1">
          <mxGeometry y="52" width="160" height="26" as="geometry" />
        </mxCell>
        <mxCell id="zkfFHV4jXpPFQw0GAbJ--20" value="State" style="text;align=left;verticalAlign=top;spacingLeft=4;spacingRight=4;overflow=hidden;rotatable=0;points=[[0,0.5],[1,0.5]];portConstraint=eastwest;rounded=0;shadow=0;html=0;" parent="zkfFHV4jXpPFQw0GAbJ--17" vertex="1">
          <mxGeometry y="78" width="160" height="26" as="geometry" />
        </mxCell>
        <mxCell id="zkfFHV4jXpPFQw0GAbJ--21" value="Postal Code" style="text;align=left;verticalAlign=top;spacingLeft=4;spacingRight=4;overflow=hidden;rotatable=0;points=[[0,0.5],[1,0.5]];portConstraint=eastwest;rounded=0;shadow=0;html=0;" parent="zkfFHV4jXpPFQw0GAbJ--17" vertex="1">
          <mxGeometry y="104" width="160" height="26" as="geometry" />
        </mxCell>
        <mxCell id="zkfFHV4jXpPFQw0GAbJ--22" value="Country" style="text;align=left;verticalAlign=top;spacingLeft=4;spacingRight=4;overflow=hidden;rotatable=0;points=[[0,0.5],[1,0.5]];portConstraint=eastwest;rounded=0;shadow=0;html=0;" parent="zkfFHV4jXpPFQw0GAbJ--17" vertex="1">
          <mxGeometry y="130" width="160" height="26" as="geometry" />
        </mxCell>
        <mxCell id="zkfFHV4jXpPFQw0GAbJ--23" value="" style="line;html=1;strokeWidth=1;align=left;verticalAlign=middle;spacingTop=-1;spacingLeft=3;spacingRight=3;rotatable=0;labelPosition=right;points=[];portConstraint=eastwest;" parent="zkfFHV4jXpPFQw0GAbJ--17" vertex="1">
          <mxGeometry y="156" width="160" height="8" as="geometry" />
        </mxCell>
        <mxCell id="zkfFHV4jXpPFQw0GAbJ--24" value="Validate" style="text;align=left;verticalAlign=top;spacingLeft=4;spacingRight=4;overflow=hidden;rotatable=0;points=[[0,0.5],[1,0.5]];portConstraint=eastwest;" parent="zkfFHV4jXpPFQw0GAbJ--17" vertex="1">
          <mxGeometry y="164" width="160" height="26" as="geometry" />
        </mxCell>
        <mxCell id="zkfFHV4jXpPFQw0GAbJ--25" value="Output As Label" style="text;align=left;verticalAlign=top;spacingLeft=4;spacingRight=4;overflow=hidden;rotatable=0;points=[[0,0.5],[1,0.5]];portConstraint=eastwest;" parent="zkfFHV4jXpPFQw0GAbJ--17" vertex="1">
          <mxGeometry y="190" width="160" height="26" as="geometry" />
        </mxCell>
        <mxCell id="zkfFHV4jXpPFQw0GAbJ--26" value="" style="endArrow=open;shadow=0;strokeWidth=1;rounded=0;endFill=1;edgeStyle=elbowEdgeStyle;elbow=vertical;" parent="WIyWlLk6GJQsqaUBKTNV-1" source="zkfFHV4jXpPFQw0GAbJ--0" target="zkfFHV4jXpPFQw0GAbJ--17" edge="1">
          <mxGeometry x="0.5" y="41" relative="1" as="geometry">
            <mxPoint x="380" y="192" as="sourcePoint" />
            <mxPoint x="540" y="192" as="targetPoint" />
            <mxPoint x="-40" y="32" as="offset" />
          </mxGeometry>
        </mxCell>
        <mxCell id="zkfFHV4jXpPFQw0GAbJ--27" value="0..1" style="resizable=0;align=left;verticalAlign=bottom;labelBackgroundColor=none;fontSize=12;" parent="zkfFHV4jXpPFQw0GAbJ--26" connectable="0" vertex="1">
          <mxGeometry x="-1" relative="1" as="geometry">
            <mxPoint y="4" as="offset" />
          </mxGeometry>
        </mxCell>
        <mxCell id="zkfFHV4jXpPFQw0GAbJ--28" value="1" style="resizable=0;align=right;verticalAlign=bottom;labelBackgroundColor=none;fontSize=12;" parent="zkfFHV4jXpPFQw0GAbJ--26" connectable="0" vertex="1">
          <mxGeometry x="1" relative="1" as="geometry">
            <mxPoint x="-7" y="4" as="offset" />
          </mxGeometry>
        </mxCell>
        <mxCell id="zkfFHV4jXpPFQw0GAbJ--29" value="lives at" style="text;html=1;resizable=0;points=[];;align=center;verticalAlign=middle;labelBackgroundColor=none;rounded=0;shadow=0;strokeWidth=1;fontSize=12;" parent="zkfFHV4jXpPFQw0GAbJ--26" vertex="1" connectable="0">
          <mxGeometry x="0.5" y="49" relative="1" as="geometry">
            <mxPoint x="-38" y="40" as="offset" />
          </mxGeometry>
        </mxCell>
      </root>
    </mxGraphModel>
  </diagram>
  <diagram id="cWyKIdcc0OiF6iNw18U0" name="UML - Event Management">
    <mxGraphModel dx="5228" dy="1745" grid="1" gridSize="10" guides="1" tooltips="1" connect="1" arrows="1" fold="1" page="1" pageScale="1" pageWidth="827" pageHeight="1169" math="0" shadow="0">
      <root>
        <mxCell id="0" />
        <mxCell id="1" parent="0" />
        <mxCell id="KQztfbYuIWHAS5Uq-7fM-13" value="gui" style="shape=folder;fontStyle=1;tabWidth=110;tabHeight=30;tabPosition=left;html=1;boundedLbl=1;labelInHeader=1;container=1;collapsible=0;" vertex="1" parent="1">
          <mxGeometry x="-170" y="-40" width="1190" height="730" as="geometry" />
        </mxCell>
        <mxCell id="KQztfbYuIWHAS5Uq-7fM-14" value="TextText" style="html=1;strokeColor=none;resizeWidth=1;resizeHeight=1;fillColor=none;part=1;connectable=0;allowArrows=0;deletable=0;" vertex="1" parent="KQztfbYuIWHAS5Uq-7fM-13">
          <mxGeometry width="1190" height="511" relative="1" as="geometry">
            <mxPoint y="30" as="offset" />
          </mxGeometry>
        </mxCell>
        <mxCell id="KQztfbYuIWHAS5Uq-7fM-15" value="be" style="shape=folder;fontStyle=1;tabWidth=110;tabHeight=30;tabPosition=left;html=1;boundedLbl=1;labelInHeader=1;container=1;collapsible=0;" vertex="1" parent="1">
          <mxGeometry x="-3340" y="80" width="3110" height="588" as="geometry" />
        </mxCell>
        <mxCell id="KQztfbYuIWHAS5Uq-7fM-16" value="&lt;br&gt;" style="html=1;strokeColor=none;resizeWidth=1;resizeHeight=1;fillColor=none;part=1;connectable=0;allowArrows=0;deletable=0;" vertex="1" parent="KQztfbYuIWHAS5Uq-7fM-15">
          <mxGeometry width="3110" height="342.99999999999994" relative="1" as="geometry">
            <mxPoint y="30" as="offset" />
          </mxGeometry>
        </mxCell>
        <mxCell id="mZVQ8eQ1KniG1bHVF11b-13" value="Admin&#xa;" style="swimlane;fontStyle=2;align=center;verticalAlign=top;childLayout=stackLayout;horizontal=1;startSize=26;horizontalStack=0;resizeParent=1;resizeLast=0;collapsible=1;marginBottom=0;rounded=0;shadow=0;strokeWidth=1;" vertex="1" parent="KQztfbYuIWHAS5Uq-7fM-15">
          <mxGeometry x="56.55" y="70" width="483.45" height="430" as="geometry">
            <mxRectangle x="230" y="140" width="160" height="26" as="alternateBounds" />
          </mxGeometry>
        </mxCell>
        <mxCell id="mZVQ8eQ1KniG1bHVF11b-14" value="- id : int" style="text;align=left;verticalAlign=top;spacingLeft=4;spacingRight=4;overflow=hidden;rotatable=0;points=[[0,0.5],[1,0.5]];portConstraint=eastwest;" vertex="1" parent="mZVQ8eQ1KniG1bHVF11b-13">
          <mxGeometry y="26" width="483.45" height="26" as="geometry" />
        </mxCell>
        <mxCell id="mZVQ8eQ1KniG1bHVF11b-15" value="- usernameAdmin : String" style="text;align=left;verticalAlign=top;spacingLeft=4;spacingRight=4;overflow=hidden;rotatable=0;points=[[0,0.5],[1,0.5]];portConstraint=eastwest;rounded=0;shadow=0;html=0;" vertex="1" parent="mZVQ8eQ1KniG1bHVF11b-13">
          <mxGeometry y="52" width="483.45" height="26" as="geometry" />
        </mxCell>
        <mxCell id="mZVQ8eQ1KniG1bHVF11b-16" value="- passwordAdmin : String&#xa;" style="text;align=left;verticalAlign=top;spacingLeft=4;spacingRight=4;overflow=hidden;rotatable=0;points=[[0,0.5],[1,0.5]];portConstraint=eastwest;rounded=0;shadow=0;html=0;" vertex="1" parent="mZVQ8eQ1KniG1bHVF11b-13">
          <mxGeometry y="78" width="483.45" height="26" as="geometry" />
        </mxCell>
        <mxCell id="mZVQ8eQ1KniG1bHVF11b-20" value="- isAdmin : String&#xa;" style="text;align=left;verticalAlign=top;spacingLeft=4;spacingRight=4;overflow=hidden;rotatable=0;points=[[0,0.5],[1,0.5]];portConstraint=eastwest;rounded=0;shadow=0;html=0;" vertex="1" parent="mZVQ8eQ1KniG1bHVF11b-13">
          <mxGeometry y="104" width="483.45" height="26" as="geometry" />
        </mxCell>
        <mxCell id="mZVQ8eQ1KniG1bHVF11b-21" value="+ Admin()" style="text;align=left;verticalAlign=top;spacingLeft=4;spacingRight=4;overflow=hidden;rotatable=0;points=[[0,0.5],[1,0.5]];portConstraint=eastwest;rounded=0;shadow=0;html=0;" vertex="1" parent="mZVQ8eQ1KniG1bHVF11b-13">
          <mxGeometry y="130" width="483.45" height="26" as="geometry" />
        </mxCell>
        <mxCell id="mZVQ8eQ1KniG1bHVF11b-22" value="+ Admin(id : int, usernameAdmin : String, passwordAdmin : String, isAdmin : boolean)" style="text;align=left;verticalAlign=top;spacingLeft=4;spacingRight=4;overflow=hidden;rotatable=0;points=[[0,0.5],[1,0.5]];portConstraint=eastwest;rounded=0;shadow=0;html=0;" vertex="1" parent="mZVQ8eQ1KniG1bHVF11b-13">
          <mxGeometry y="156" width="483.45" height="26" as="geometry" />
        </mxCell>
        <mxCell id="mZVQ8eQ1KniG1bHVF11b-23" value="+ Admin(username : String, password : String)" style="text;align=left;verticalAlign=top;spacingLeft=4;spacingRight=4;overflow=hidden;rotatable=0;points=[[0,0.5],[1,0.5]];portConstraint=eastwest;rounded=0;shadow=0;html=0;" vertex="1" parent="mZVQ8eQ1KniG1bHVF11b-13">
          <mxGeometry y="182" width="483.45" height="26" as="geometry" />
        </mxCell>
        <mxCell id="mZVQ8eQ1KniG1bHVF11b-24" value="+ getId() : int" style="text;align=left;verticalAlign=top;spacingLeft=4;spacingRight=4;overflow=hidden;rotatable=0;points=[[0,0.5],[1,0.5]];portConstraint=eastwest;rounded=0;shadow=0;html=0;" vertex="1" parent="mZVQ8eQ1KniG1bHVF11b-13">
          <mxGeometry y="208" width="483.45" height="26" as="geometry" />
        </mxCell>
        <mxCell id="mZVQ8eQ1KniG1bHVF11b-25" value="+ setId(id : int)" style="text;align=left;verticalAlign=top;spacingLeft=4;spacingRight=4;overflow=hidden;rotatable=0;points=[[0,0.5],[1,0.5]];portConstraint=eastwest;rounded=0;shadow=0;html=0;" vertex="1" parent="mZVQ8eQ1KniG1bHVF11b-13">
          <mxGeometry y="234" width="483.45" height="26" as="geometry" />
        </mxCell>
        <mxCell id="mZVQ8eQ1KniG1bHVF11b-26" value="+ getUsername() : String" style="text;align=left;verticalAlign=top;spacingLeft=4;spacingRight=4;overflow=hidden;rotatable=0;points=[[0,0.5],[1,0.5]];portConstraint=eastwest;rounded=0;shadow=0;html=0;" vertex="1" parent="mZVQ8eQ1KniG1bHVF11b-13">
          <mxGeometry y="260" width="483.45" height="26" as="geometry" />
        </mxCell>
        <mxCell id="mZVQ8eQ1KniG1bHVF11b-27" value="+ setUsername(username : String)" style="text;align=left;verticalAlign=top;spacingLeft=4;spacingRight=4;overflow=hidden;rotatable=0;points=[[0,0.5],[1,0.5]];portConstraint=eastwest;rounded=0;shadow=0;html=0;" vertex="1" parent="mZVQ8eQ1KniG1bHVF11b-13">
          <mxGeometry y="286" width="483.45" height="26" as="geometry" />
        </mxCell>
        <mxCell id="mZVQ8eQ1KniG1bHVF11b-28" value="+ getPassword() : String" style="text;align=left;verticalAlign=top;spacingLeft=4;spacingRight=4;overflow=hidden;rotatable=0;points=[[0,0.5],[1,0.5]];portConstraint=eastwest;rounded=0;shadow=0;html=0;" vertex="1" parent="mZVQ8eQ1KniG1bHVF11b-13">
          <mxGeometry y="312" width="483.45" height="26" as="geometry" />
        </mxCell>
        <mxCell id="mZVQ8eQ1KniG1bHVF11b-29" value="+ setPassword(password : String)" style="text;align=left;verticalAlign=top;spacingLeft=4;spacingRight=4;overflow=hidden;rotatable=0;points=[[0,0.5],[1,0.5]];portConstraint=eastwest;rounded=0;shadow=0;html=0;" vertex="1" parent="mZVQ8eQ1KniG1bHVF11b-13">
          <mxGeometry y="338" width="483.45" height="26" as="geometry" />
        </mxCell>
        <mxCell id="mZVQ8eQ1KniG1bHVF11b-30" value="+ isAdmin() : boolean" style="text;align=left;verticalAlign=top;spacingLeft=4;spacingRight=4;overflow=hidden;rotatable=0;points=[[0,0.5],[1,0.5]];portConstraint=eastwest;rounded=0;shadow=0;html=0;" vertex="1" parent="mZVQ8eQ1KniG1bHVF11b-13">
          <mxGeometry y="364" width="483.45" height="26" as="geometry" />
        </mxCell>
        <mxCell id="mZVQ8eQ1KniG1bHVF11b-17" value="" style="line;html=1;strokeWidth=1;align=left;verticalAlign=middle;spacingTop=-1;spacingLeft=3;spacingRight=3;rotatable=0;labelPosition=right;points=[];portConstraint=eastwest;" vertex="1" parent="mZVQ8eQ1KniG1bHVF11b-13">
          <mxGeometry y="390" width="483.45" height="8" as="geometry" />
        </mxCell>
        <mxCell id="mZVQ8eQ1KniG1bHVF11b-18" value="Purchase Parking Pass" style="text;align=left;verticalAlign=top;spacingLeft=4;spacingRight=4;overflow=hidden;rotatable=0;points=[[0,0.5],[1,0.5]];portConstraint=eastwest;" vertex="1" parent="mZVQ8eQ1KniG1bHVF11b-13">
          <mxGeometry y="398" width="483.45" height="26" as="geometry" />
        </mxCell>
        <mxCell id="mZVQ8eQ1KniG1bHVF11b-32" value="Customer" style="swimlane;fontStyle=2;align=center;verticalAlign=top;childLayout=stackLayout;horizontal=1;startSize=26;horizontalStack=0;resizeParent=1;resizeLast=0;collapsible=1;marginBottom=0;rounded=0;shadow=0;strokeWidth=1;" vertex="1" parent="KQztfbYuIWHAS5Uq-7fM-15">
          <mxGeometry x="620" y="70" width="669.23" height="528" as="geometry">
            <mxRectangle x="230" y="140" width="160" height="26" as="alternateBounds" />
          </mxGeometry>
        </mxCell>
        <mxCell id="mZVQ8eQ1KniG1bHVF11b-33" value="- id : int" style="text;align=left;verticalAlign=top;spacingLeft=4;spacingRight=4;overflow=hidden;rotatable=0;points=[[0,0.5],[1,0.5]];portConstraint=eastwest;" vertex="1" parent="mZVQ8eQ1KniG1bHVF11b-32">
          <mxGeometry y="26" width="669.23" height="26" as="geometry" />
        </mxCell>
        <mxCell id="mZVQ8eQ1KniG1bHVF11b-34" value="- firstName : String" style="text;align=left;verticalAlign=top;spacingLeft=4;spacingRight=4;overflow=hidden;rotatable=0;points=[[0,0.5],[1,0.5]];portConstraint=eastwest;rounded=0;shadow=0;html=0;" vertex="1" parent="mZVQ8eQ1KniG1bHVF11b-32">
          <mxGeometry y="52" width="669.23" height="26" as="geometry" />
        </mxCell>
        <mxCell id="mZVQ8eQ1KniG1bHVF11b-35" value="- lastName : String&#xa;" style="text;align=left;verticalAlign=top;spacingLeft=4;spacingRight=4;overflow=hidden;rotatable=0;points=[[0,0.5],[1,0.5]];portConstraint=eastwest;rounded=0;shadow=0;html=0;" vertex="1" parent="mZVQ8eQ1KniG1bHVF11b-32">
          <mxGeometry y="78" width="669.23" height="26" as="geometry" />
        </mxCell>
        <mxCell id="mZVQ8eQ1KniG1bHVF11b-36" value="- phoneNumber : String&#xa;" style="text;align=left;verticalAlign=top;spacingLeft=4;spacingRight=4;overflow=hidden;rotatable=0;points=[[0,0.5],[1,0.5]];portConstraint=eastwest;rounded=0;shadow=0;html=0;" vertex="1" parent="mZVQ8eQ1KniG1bHVF11b-32">
          <mxGeometry y="104" width="669.23" height="26" as="geometry" />
        </mxCell>
        <mxCell id="mZVQ8eQ1KniG1bHVF11b-49" value="- email : String&#xa;" style="text;align=left;verticalAlign=top;spacingLeft=4;spacingRight=4;overflow=hidden;rotatable=0;points=[[0,0.5],[1,0.5]];portConstraint=eastwest;rounded=0;shadow=0;html=0;" vertex="1" parent="mZVQ8eQ1KniG1bHVF11b-32">
          <mxGeometry y="130" width="669.23" height="26" as="geometry" />
        </mxCell>
        <mxCell id="mZVQ8eQ1KniG1bHVF11b-50" value="- study : String&#xa;" style="text;align=left;verticalAlign=top;spacingLeft=4;spacingRight=4;overflow=hidden;rotatable=0;points=[[0,0.5],[1,0.5]];portConstraint=eastwest;rounded=0;shadow=0;html=0;" vertex="1" parent="mZVQ8eQ1KniG1bHVF11b-32">
          <mxGeometry y="156" width="669.23" height="26" as="geometry" />
        </mxCell>
        <mxCell id="mZVQ8eQ1KniG1bHVF11b-51" value="- note : String&#xa;" style="text;align=left;verticalAlign=top;spacingLeft=4;spacingRight=4;overflow=hidden;rotatable=0;points=[[0,0.5],[1,0.5]];portConstraint=eastwest;rounded=0;shadow=0;html=0;" vertex="1" parent="mZVQ8eQ1KniG1bHVF11b-32">
          <mxGeometry y="182" width="669.23" height="26" as="geometry" />
        </mxCell>
        <mxCell id="mZVQ8eQ1KniG1bHVF11b-37" value="+ Customer()" style="text;align=left;verticalAlign=top;spacingLeft=4;spacingRight=4;overflow=hidden;rotatable=0;points=[[0,0.5],[1,0.5]];portConstraint=eastwest;rounded=0;shadow=0;html=0;" vertex="1" parent="mZVQ8eQ1KniG1bHVF11b-32">
          <mxGeometry y="208" width="669.23" height="26" as="geometry" />
        </mxCell>
        <mxCell id="mZVQ8eQ1KniG1bHVF11b-38" value="+ Customer(id : int, firstName : String, lastName : String, phoneNumber : String, email : String, Study : String, note : String)" style="text;align=left;verticalAlign=top;spacingLeft=4;spacingRight=4;overflow=hidden;rotatable=0;points=[[0,0.5],[1,0.5]];portConstraint=eastwest;rounded=0;shadow=0;html=0;" vertex="1" parent="mZVQ8eQ1KniG1bHVF11b-32">
          <mxGeometry y="234" width="669.23" height="26" as="geometry" />
        </mxCell>
        <mxCell id="mZVQ8eQ1KniG1bHVF11b-40" value="+ getId() : int" style="text;align=left;verticalAlign=top;spacingLeft=4;spacingRight=4;overflow=hidden;rotatable=0;points=[[0,0.5],[1,0.5]];portConstraint=eastwest;rounded=0;shadow=0;html=0;" vertex="1" parent="mZVQ8eQ1KniG1bHVF11b-32">
          <mxGeometry y="260" width="669.23" height="26" as="geometry" />
        </mxCell>
        <mxCell id="mZVQ8eQ1KniG1bHVF11b-41" value="+ setId(id : int)" style="text;align=left;verticalAlign=top;spacingLeft=4;spacingRight=4;overflow=hidden;rotatable=0;points=[[0,0.5],[1,0.5]];portConstraint=eastwest;rounded=0;shadow=0;html=0;" vertex="1" parent="mZVQ8eQ1KniG1bHVF11b-32">
          <mxGeometry y="286" width="669.23" height="26" as="geometry" />
        </mxCell>
        <mxCell id="mZVQ8eQ1KniG1bHVF11b-42" value="+ getFirstName() : String" style="text;align=left;verticalAlign=top;spacingLeft=4;spacingRight=4;overflow=hidden;rotatable=0;points=[[0,0.5],[1,0.5]];portConstraint=eastwest;rounded=0;shadow=0;html=0;" vertex="1" parent="mZVQ8eQ1KniG1bHVF11b-32">
          <mxGeometry y="312" width="669.23" height="26" as="geometry" />
        </mxCell>
        <mxCell id="mZVQ8eQ1KniG1bHVF11b-43" value="+ getLastName() : String" style="text;align=left;verticalAlign=top;spacingLeft=4;spacingRight=4;overflow=hidden;rotatable=0;points=[[0,0.5],[1,0.5]];portConstraint=eastwest;rounded=0;shadow=0;html=0;" vertex="1" parent="mZVQ8eQ1KniG1bHVF11b-32">
          <mxGeometry y="338" width="669.23" height="26" as="geometry" />
        </mxCell>
        <mxCell id="mZVQ8eQ1KniG1bHVF11b-44" value="+ getPhoneNumber() : String" style="text;align=left;verticalAlign=top;spacingLeft=4;spacingRight=4;overflow=hidden;rotatable=0;points=[[0,0.5],[1,0.5]];portConstraint=eastwest;rounded=0;shadow=0;html=0;" vertex="1" parent="mZVQ8eQ1KniG1bHVF11b-32">
          <mxGeometry y="364" width="669.23" height="26" as="geometry" />
        </mxCell>
        <mxCell id="mZVQ8eQ1KniG1bHVF11b-45" value="+ getEmail() : String" style="text;align=left;verticalAlign=top;spacingLeft=4;spacingRight=4;overflow=hidden;rotatable=0;points=[[0,0.5],[1,0.5]];portConstraint=eastwest;rounded=0;shadow=0;html=0;" vertex="1" parent="mZVQ8eQ1KniG1bHVF11b-32">
          <mxGeometry y="390" width="669.23" height="26" as="geometry" />
        </mxCell>
        <mxCell id="mZVQ8eQ1KniG1bHVF11b-46" value="+ setEmail() : String" style="text;align=left;verticalAlign=top;spacingLeft=4;spacingRight=4;overflow=hidden;rotatable=0;points=[[0,0.5],[1,0.5]];portConstraint=eastwest;rounded=0;shadow=0;html=0;" vertex="1" parent="mZVQ8eQ1KniG1bHVF11b-32">
          <mxGeometry y="416" width="669.23" height="26" as="geometry" />
        </mxCell>
        <mxCell id="mZVQ8eQ1KniG1bHVF11b-52" value="+ getStudy() : String" style="text;align=left;verticalAlign=top;spacingLeft=4;spacingRight=4;overflow=hidden;rotatable=0;points=[[0,0.5],[1,0.5]];portConstraint=eastwest;rounded=0;shadow=0;html=0;" vertex="1" parent="mZVQ8eQ1KniG1bHVF11b-32">
          <mxGeometry y="442" width="669.23" height="26" as="geometry" />
        </mxCell>
        <mxCell id="mZVQ8eQ1KniG1bHVF11b-47" value="" style="line;html=1;strokeWidth=1;align=left;verticalAlign=middle;spacingTop=-1;spacingLeft=3;spacingRight=3;rotatable=0;labelPosition=right;points=[];portConstraint=eastwest;" vertex="1" parent="mZVQ8eQ1KniG1bHVF11b-32">
          <mxGeometry y="468" width="669.23" height="8" as="geometry" />
        </mxCell>
        <mxCell id="mZVQ8eQ1KniG1bHVF11b-53" value="+ getNote() : String" style="text;align=left;verticalAlign=top;spacingLeft=4;spacingRight=4;overflow=hidden;rotatable=0;points=[[0,0.5],[1,0.5]];portConstraint=eastwest;rounded=0;shadow=0;html=0;" vertex="1" parent="mZVQ8eQ1KniG1bHVF11b-32">
          <mxGeometry y="476" width="669.23" height="26" as="geometry" />
        </mxCell>
        <mxCell id="mZVQ8eQ1KniG1bHVF11b-48" value="Purchase Parking Pass" style="text;align=left;verticalAlign=top;spacingLeft=4;spacingRight=4;overflow=hidden;rotatable=0;points=[[0,0.5],[1,0.5]];portConstraint=eastwest;" vertex="1" parent="mZVQ8eQ1KniG1bHVF11b-32">
          <mxGeometry y="502" width="669.23" height="26" as="geometry" />
        </mxCell>
        <mxCell id="KQztfbYuIWHAS5Uq-7fM-17" value="bll" style="shape=folder;fontStyle=1;tabWidth=110;tabHeight=30;tabPosition=left;html=1;boundedLbl=1;labelInHeader=1;container=1;collapsible=0;" vertex="1" parent="1">
          <mxGeometry x="-66" y="710" width="960" height="630" as="geometry" />
        </mxCell>
        <mxCell id="KQztfbYuIWHAS5Uq-7fM-18" value="" style="html=1;strokeColor=none;resizeWidth=1;resizeHeight=1;fillColor=none;part=1;connectable=0;allowArrows=0;deletable=0;" vertex="1" parent="KQztfbYuIWHAS5Uq-7fM-17">
          <mxGeometry width="960" height="441" relative="1" as="geometry">
            <mxPoint y="30" as="offset" />
          </mxGeometry>
        </mxCell>
        <mxCell id="KQztfbYuIWHAS5Uq-7fM-19" value="dal" style="shape=folder;fontStyle=1;tabWidth=110;tabHeight=30;tabPosition=left;html=1;boundedLbl=1;labelInHeader=1;container=1;collapsible=0;" vertex="1" parent="1">
          <mxGeometry x="-270" y="1300" width="2210" height="980" as="geometry" />
        </mxCell>
        <mxCell id="KQztfbYuIWHAS5Uq-7fM-20" value="" style="html=1;strokeColor=none;resizeWidth=1;resizeHeight=1;fillColor=none;part=1;connectable=0;allowArrows=0;deletable=0;" vertex="1" parent="KQztfbYuIWHAS5Uq-7fM-19">
          <mxGeometry width="2210" height="908.2926829268293" relative="1" as="geometry">
            <mxPoint y="30" as="offset" />
          </mxGeometry>
        </mxCell>
        <mxCell id="aOK3zNNQjRz0KE04rkdm-7" value="EventCoordinatorDAO&#xa;" style="swimlane;fontStyle=2;align=center;verticalAlign=top;childLayout=stackLayout;horizontal=1;startSize=26;horizontalStack=0;resizeParent=1;resizeLast=0;collapsible=1;marginBottom=0;rounded=0;shadow=0;strokeWidth=1;" vertex="1" parent="KQztfbYuIWHAS5Uq-7fM-19">
          <mxGeometry x="892.317857142857" y="95.28166666666668" width="369.87142857142857" height="348.0516666666667" as="geometry">
            <mxRectangle x="230" y="140" width="160" height="26" as="alternateBounds" />
          </mxGeometry>
        </mxCell>
        <mxCell id="aOK3zNNQjRz0KE04rkdm-10" value="- connector : DatabaseConnector" style="text;align=left;verticalAlign=top;spacingLeft=4;spacingRight=4;overflow=hidden;rotatable=0;points=[[0,0.5],[1,0.5]];portConstraint=eastwest;rounded=0;shadow=0;html=0;" vertex="1" parent="aOK3zNNQjRz0KE04rkdm-7">
          <mxGeometry y="26" width="369.87142857142857" height="35.38888888888889" as="geometry" />
        </mxCell>
        <mxCell id="aOK3zNNQjRz0KE04rkdm-11" value="" style="line;html=1;strokeWidth=1;align=left;verticalAlign=middle;spacingTop=-1;spacingLeft=3;spacingRight=3;rotatable=0;labelPosition=right;points=[];portConstraint=eastwest;" vertex="1" parent="aOK3zNNQjRz0KE04rkdm-7">
          <mxGeometry y="61.38888888888889" width="369.87142857142857" height="10.88888888888889" as="geometry" />
        </mxCell>
        <mxCell id="aOK3zNNQjRz0KE04rkdm-83" value="+ addCustomerToEvent(int : customerId, int : eventId) : void" style="text;align=left;verticalAlign=top;spacingLeft=4;spacingRight=4;overflow=hidden;rotatable=0;points=[[0,0.5],[1,0.5]];portConstraint=eastwest;" vertex="1" parent="aOK3zNNQjRz0KE04rkdm-7">
          <mxGeometry y="72.27777777777779" width="369.87142857142857" height="35.38888888888889" as="geometry" />
        </mxCell>
        <mxCell id="aOK3zNNQjRz0KE04rkdm-84" value="+ deleteFromEvent() : List&lt;Customer&gt;" style="text;align=left;verticalAlign=top;spacingLeft=4;spacingRight=4;overflow=hidden;rotatable=0;points=[[0,0.5],[1,0.5]];portConstraint=eastwest;" vertex="1" parent="aOK3zNNQjRz0KE04rkdm-7">
          <mxGeometry y="107.66666666666669" width="369.87142857142857" height="35.38888888888889" as="geometry" />
        </mxCell>
        <mxCell id="aOK3zNNQjRz0KE04rkdm-87" value="+ getCustomers() : List&lt;Customer&gt;" style="text;align=left;verticalAlign=top;spacingLeft=4;spacingRight=4;overflow=hidden;rotatable=0;points=[[0,0.5],[1,0.5]];portConstraint=eastwest;" vertex="1" parent="aOK3zNNQjRz0KE04rkdm-7">
          <mxGeometry y="143.05555555555557" width="369.87142857142857" height="35.38888888888889" as="geometry" />
        </mxCell>
        <mxCell id="aOK3zNNQjRz0KE04rkdm-19" value="EventDAO" style="swimlane;fontStyle=2;align=center;verticalAlign=top;childLayout=stackLayout;horizontal=1;startSize=26;horizontalStack=0;resizeParent=1;resizeLast=0;collapsible=1;marginBottom=0;rounded=0;shadow=0;strokeWidth=1;" vertex="1" parent="KQztfbYuIWHAS5Uq-7fM-19">
          <mxGeometry x="1308.4309623430963" y="95.27777777777776" width="369.8744769874477" height="187.83333333333331" as="geometry">
            <mxRectangle x="230" y="140" width="160" height="26" as="alternateBounds" />
          </mxGeometry>
        </mxCell>
        <mxCell id="aOK3zNNQjRz0KE04rkdm-20" value="- connector : DatabaseConnector" style="text;align=left;verticalAlign=top;spacingLeft=4;spacingRight=4;overflow=hidden;rotatable=0;points=[[0,0.5],[1,0.5]];portConstraint=eastwest;" vertex="1" parent="aOK3zNNQjRz0KE04rkdm-19">
          <mxGeometry y="26" width="369.8744769874477" height="35.38888888888889" as="geometry" />
        </mxCell>
        <mxCell id="aOK3zNNQjRz0KE04rkdm-23" value="" style="line;html=1;strokeWidth=1;align=left;verticalAlign=middle;spacingTop=-1;spacingLeft=3;spacingRight=3;rotatable=0;labelPosition=right;points=[];portConstraint=eastwest;" vertex="1" parent="aOK3zNNQjRz0KE04rkdm-19">
          <mxGeometry y="61.38888888888889" width="369.8744769874477" height="10.88888888888889" as="geometry" />
        </mxCell>
        <mxCell id="aOK3zNNQjRz0KE04rkdm-24" value="Purchase Parking Pass" style="text;align=left;verticalAlign=top;spacingLeft=4;spacingRight=4;overflow=hidden;rotatable=0;points=[[0,0.5],[1,0.5]];portConstraint=eastwest;" vertex="1" parent="aOK3zNNQjRz0KE04rkdm-19">
          <mxGeometry y="72.27777777777779" width="369.8744769874477" height="35.38888888888889" as="geometry" />
        </mxCell>
        <mxCell id="aOK3zNNQjRz0KE04rkdm-25" value="DatabaseConnector&#xa;" style="swimlane;fontStyle=2;align=center;verticalAlign=top;childLayout=stackLayout;horizontal=1;startSize=26;horizontalStack=0;resizeParent=1;resizeLast=0;collapsible=1;marginBottom=0;rounded=0;shadow=0;strokeWidth=1;" vertex="1" parent="KQztfbYuIWHAS5Uq-7fM-19">
          <mxGeometry x="892.3163329348475" y="676.6627777777778" width="369.8744769874477" height="187.83333333333331" as="geometry">
            <mxRectangle x="230" y="140" width="160" height="26" as="alternateBounds" />
          </mxGeometry>
        </mxCell>
        <mxCell id="aOK3zNNQjRz0KE04rkdm-26" value="Name" style="text;align=left;verticalAlign=top;spacingLeft=4;spacingRight=4;overflow=hidden;rotatable=0;points=[[0,0.5],[1,0.5]];portConstraint=eastwest;" vertex="1" parent="aOK3zNNQjRz0KE04rkdm-25">
          <mxGeometry y="26" width="369.8744769874477" height="35.38888888888889" as="geometry" />
        </mxCell>
        <mxCell id="aOK3zNNQjRz0KE04rkdm-27" value="Phone Number" style="text;align=left;verticalAlign=top;spacingLeft=4;spacingRight=4;overflow=hidden;rotatable=0;points=[[0,0.5],[1,0.5]];portConstraint=eastwest;rounded=0;shadow=0;html=0;" vertex="1" parent="aOK3zNNQjRz0KE04rkdm-25">
          <mxGeometry y="61.38888888888889" width="369.8744769874477" height="35.38888888888889" as="geometry" />
        </mxCell>
        <mxCell id="aOK3zNNQjRz0KE04rkdm-28" value="Email Address" style="text;align=left;verticalAlign=top;spacingLeft=4;spacingRight=4;overflow=hidden;rotatable=0;points=[[0,0.5],[1,0.5]];portConstraint=eastwest;rounded=0;shadow=0;html=0;" vertex="1" parent="aOK3zNNQjRz0KE04rkdm-25">
          <mxGeometry y="96.77777777777779" width="369.8744769874477" height="35.38888888888889" as="geometry" />
        </mxCell>
        <mxCell id="aOK3zNNQjRz0KE04rkdm-29" value="" style="line;html=1;strokeWidth=1;align=left;verticalAlign=middle;spacingTop=-1;spacingLeft=3;spacingRight=3;rotatable=0;labelPosition=right;points=[];portConstraint=eastwest;" vertex="1" parent="aOK3zNNQjRz0KE04rkdm-25">
          <mxGeometry y="132.16666666666669" width="369.8744769874477" height="10.88888888888889" as="geometry" />
        </mxCell>
        <mxCell id="aOK3zNNQjRz0KE04rkdm-30" value="Purchase Parking Pass" style="text;align=left;verticalAlign=top;spacingLeft=4;spacingRight=4;overflow=hidden;rotatable=0;points=[[0,0.5],[1,0.5]];portConstraint=eastwest;" vertex="1" parent="aOK3zNNQjRz0KE04rkdm-25">
          <mxGeometry y="143.05555555555557" width="369.8744769874477" height="35.38888888888889" as="geometry" />
        </mxCell>
        <mxCell id="Qt8GWEGw7-T774WF9CFW-1" value="AdminDAO" style="swimlane;fontStyle=2;align=center;verticalAlign=top;childLayout=stackLayout;horizontal=1;startSize=26;horizontalStack=0;resizeParent=1;resizeLast=0;collapsible=1;marginBottom=0;rounded=0;shadow=0;strokeWidth=1;fontSize=12;" vertex="1" parent="KQztfbYuIWHAS5Uq-7fM-19">
          <mxGeometry x="61.47" y="95.28" width="369.87" height="424.72" as="geometry">
            <mxRectangle x="30.62" y="70" width="160" height="26" as="alternateBounds" />
          </mxGeometry>
        </mxCell>
        <mxCell id="Qt8GWEGw7-T774WF9CFW-2" value="- connector : DatabaseConnector" style="text;align=left;verticalAlign=top;spacingLeft=4;spacingRight=4;overflow=hidden;rotatable=0;points=[[0,0.5],[1,0.5]];portConstraint=eastwest;" vertex="1" parent="Qt8GWEGw7-T774WF9CFW-1">
          <mxGeometry y="26" width="369.87" height="24" as="geometry" />
        </mxCell>
        <mxCell id="Qt8GWEGw7-T774WF9CFW-5" value="" style="line;html=1;strokeWidth=1;align=left;verticalAlign=middle;spacingTop=-1;spacingLeft=3;spacingRight=3;rotatable=0;labelPosition=right;points=[];portConstraint=eastwest;" vertex="1" parent="Qt8GWEGw7-T774WF9CFW-1">
          <mxGeometry y="50" width="369.87" height="10.88888888888889" as="geometry" />
        </mxCell>
        <mxCell id="Qt8GWEGw7-T774WF9CFW-6" value="+ getAdmins() : List&lt;Admin&gt;" style="text;align=left;verticalAlign=top;spacingLeft=4;spacingRight=4;overflow=hidden;rotatable=0;points=[[0,0.5],[1,0.5]];portConstraint=eastwest;" vertex="1" parent="Qt8GWEGw7-T774WF9CFW-1">
          <mxGeometry y="60.888888888888886" width="369.87" height="35.38888888888889" as="geometry" />
        </mxCell>
        <mxCell id="aOK3zNNQjRz0KE04rkdm-73" value="+ editAdmin(Admin : admin) : void" style="text;align=left;verticalAlign=top;spacingLeft=4;spacingRight=4;overflow=hidden;rotatable=0;points=[[0,0.5],[1,0.5]];portConstraint=eastwest;" vertex="1" parent="Qt8GWEGw7-T774WF9CFW-1">
          <mxGeometry y="96.27777777777777" width="369.87" height="35.38888888888889" as="geometry" />
        </mxCell>
        <mxCell id="aOK3zNNQjRz0KE04rkdm-1" value="CustomerDAO" style="swimlane;fontStyle=2;align=center;verticalAlign=top;childLayout=stackLayout;horizontal=1;startSize=26;horizontalStack=0;resizeParent=1;resizeLast=0;collapsible=1;marginBottom=0;rounded=0;shadow=0;strokeWidth=1;" vertex="1" parent="KQztfbYuIWHAS5Uq-7fM-19">
          <mxGeometry x="476.21" y="95.28" width="369.87" height="254.72" as="geometry">
            <mxRectangle x="230" y="140" width="160" height="26" as="alternateBounds" />
          </mxGeometry>
        </mxCell>
        <mxCell id="aOK3zNNQjRz0KE04rkdm-2" value="- connector : DatabaseConnector" style="text;align=left;verticalAlign=top;spacingLeft=4;spacingRight=4;overflow=hidden;rotatable=0;points=[[0,0.5],[1,0.5]];portConstraint=eastwest;" vertex="1" parent="aOK3zNNQjRz0KE04rkdm-1">
          <mxGeometry y="26" width="369.87" height="35.38888888888889" as="geometry" />
        </mxCell>
        <mxCell id="aOK3zNNQjRz0KE04rkdm-5" value="" style="line;html=1;strokeWidth=1;align=left;verticalAlign=middle;spacingTop=-1;spacingLeft=3;spacingRight=3;rotatable=0;labelPosition=right;points=[];portConstraint=eastwest;" vertex="1" parent="aOK3zNNQjRz0KE04rkdm-1">
          <mxGeometry y="61.38888888888889" width="369.87" height="10.88888888888889" as="geometry" />
        </mxCell>
        <mxCell id="aOK3zNNQjRz0KE04rkdm-81" value="+ getCustomers() : List&lt;Customer&gt;" style="text;align=left;verticalAlign=top;spacingLeft=4;spacingRight=4;overflow=hidden;rotatable=0;points=[[0,0.5],[1,0.5]];portConstraint=eastwest;" vertex="1" parent="aOK3zNNQjRz0KE04rkdm-1">
          <mxGeometry y="72.27777777777779" width="369.87" height="35.38888888888889" as="geometry" />
        </mxCell>
        <mxCell id="aOK3zNNQjRz0KE04rkdm-82" value="+ createCustomer(String : firstName, &#xa;String : lastName, String : phoneNumber, String : email, &#xa;String : study, String : note) : Customer" style="text;align=left;verticalAlign=top;spacingLeft=4;spacingRight=4;overflow=hidden;rotatable=0;points=[[0,0.5],[1,0.5]];portConstraint=eastwest;" vertex="1" parent="aOK3zNNQjRz0KE04rkdm-1">
          <mxGeometry y="107.66666666666669" width="369.87" height="62.33" as="geometry" />
        </mxCell>
        <mxCell id="aOK3zNNQjRz0KE04rkdm-79" value="+ deleteCustomer(int : id) : void" style="text;align=left;verticalAlign=top;spacingLeft=4;spacingRight=4;overflow=hidden;rotatable=0;points=[[0,0.5],[1,0.5]];portConstraint=eastwest;" vertex="1" parent="aOK3zNNQjRz0KE04rkdm-1">
          <mxGeometry y="169.99666666666667" width="369.87" height="35.38888888888889" as="geometry" />
        </mxCell>
        <mxCell id="aOK3zNNQjRz0KE04rkdm-78" value="+ editCustomer(Customer : customer) : void" style="text;align=left;verticalAlign=top;spacingLeft=4;spacingRight=4;overflow=hidden;rotatable=0;points=[[0,0.5],[1,0.5]];portConstraint=eastwest;" vertex="1" parent="aOK3zNNQjRz0KE04rkdm-1">
          <mxGeometry y="205.38555555555556" width="369.87" height="35.38888888888889" as="geometry" />
        </mxCell>
        <mxCell id="aOK3zNNQjRz0KE04rkdm-13" value="TicketDAO" style="swimlane;fontStyle=2;align=center;verticalAlign=top;childLayout=stackLayout;horizontal=1;startSize=26;horizontalStack=0;resizeParent=1;resizeLast=0;collapsible=1;marginBottom=0;rounded=0;shadow=0;strokeWidth=1;" vertex="1" parent="KQztfbYuIWHAS5Uq-7fM-19">
          <mxGeometry x="1724.5397489539753" y="95.27777777777776" width="369.8744769874477" height="187.83333333333331" as="geometry">
            <mxRectangle x="230" y="140" width="160" height="26" as="alternateBounds" />
          </mxGeometry>
        </mxCell>
        <mxCell id="aOK3zNNQjRz0KE04rkdm-15" value="- connector : DatabaseConnector" style="text;align=left;verticalAlign=top;spacingLeft=4;spacingRight=4;overflow=hidden;rotatable=0;points=[[0,0.5],[1,0.5]];portConstraint=eastwest;rounded=0;shadow=0;html=0;" vertex="1" parent="aOK3zNNQjRz0KE04rkdm-13">
          <mxGeometry y="26" width="369.8744769874477" height="35.38888888888889" as="geometry" />
        </mxCell>
        <mxCell id="aOK3zNNQjRz0KE04rkdm-17" value="" style="line;html=1;strokeWidth=1;align=left;verticalAlign=middle;spacingTop=-1;spacingLeft=3;spacingRight=3;rotatable=0;labelPosition=right;points=[];portConstraint=eastwest;" vertex="1" parent="aOK3zNNQjRz0KE04rkdm-13">
          <mxGeometry y="61.38888888888889" width="369.8744769874477" height="10.88888888888889" as="geometry" />
        </mxCell>
        <mxCell id="aOK3zNNQjRz0KE04rkdm-18" value="Purchase Parking Pass" style="text;align=left;verticalAlign=top;spacingLeft=4;spacingRight=4;overflow=hidden;rotatable=0;points=[[0,0.5],[1,0.5]];portConstraint=eastwest;" vertex="1" parent="aOK3zNNQjRz0KE04rkdm-13">
          <mxGeometry y="72.27777777777779" width="369.8744769874477" height="35.38888888888889" as="geometry" />
        </mxCell>
        <mxCell id="aOK3zNNQjRz0KE04rkdm-32" value="+ addCoordinatorToEvent(int : eventId, int : loginId) : void" style="text;align=left;verticalAlign=top;spacingLeft=4;spacingRight=4;overflow=hidden;rotatable=0;points=[[0,0.5],[1,0.5]];portConstraint=eastwest;" vertex="1" parent="KQztfbYuIWHAS5Uq-7fM-19">
          <mxGeometry x="60.07890947569748" y="383.8305555555555" width="369.8744769874477" height="35.38888888888889" as="geometry" />
        </mxCell>
        <mxCell id="aOK3zNNQjRz0KE04rkdm-69" value="+ getCoordinator() : List&lt;EventCoordinator&gt;" style="text;align=left;verticalAlign=top;spacingLeft=4;spacingRight=4;overflow=hidden;rotatable=0;points=[[0,0.5],[1,0.5]];portConstraint=eastwest;" vertex="1" parent="KQztfbYuIWHAS5Uq-7fM-19">
          <mxGeometry x="60.10253266937326" y="222.00388888888887" width="369.87078152753105" height="38.11111111111111" as="geometry" />
        </mxCell>
        <mxCell id="aOK3zNNQjRz0KE04rkdm-70" value="+ createCoordinator(String : username, String : password, &#xa;boolean : isAdmin) : EventCoordinator" style="text;align=left;verticalAlign=top;spacingLeft=4;spacingRight=4;overflow=hidden;rotatable=0;points=[[0,0.5],[1,0.5]];portConstraint=eastwest;" vertex="1" parent="KQztfbYuIWHAS5Uq-7fM-19">
          <mxGeometry x="60.07" y="252.01" width="369.87" height="47.99" as="geometry" />
        </mxCell>
        <mxCell id="aOK3zNNQjRz0KE04rkdm-71" value="+ deleteCoordinator(int : id) : void" style="text;align=left;verticalAlign=top;spacingLeft=4;spacingRight=4;overflow=hidden;rotatable=0;points=[[0,0.5],[1,0.5]];portConstraint=eastwest;" vertex="1" parent="KQztfbYuIWHAS5Uq-7fM-19">
          <mxGeometry x="60.097250356956934" y="307.045" width="369.8744769874477" height="35.38888888888889" as="geometry" />
        </mxCell>
        <mxCell id="aOK3zNNQjRz0KE04rkdm-72" value="+ editCoordinator(Eventcoordinator : eventCoordinator) : void" style="text;align=left;verticalAlign=top;spacingLeft=4;spacingRight=4;overflow=hidden;rotatable=0;points=[[0,0.5],[1,0.5]];portConstraint=eastwest;" vertex="1" parent="KQztfbYuIWHAS5Uq-7fM-19">
          <mxGeometry x="60.07424536760308" y="348.4377777777778" width="369.8744769874477" height="35.38888888888889" as="geometry" />
        </mxCell>
        <mxCell id="aOK3zNNQjRz0KE04rkdm-74" value="+ deleteFromEvent(int : loginId, int : eventId) : void" style="text;align=left;verticalAlign=top;spacingLeft=4;spacingRight=4;overflow=hidden;rotatable=0;points=[[0,0.5],[1,0.5]];portConstraint=eastwest;" vertex="1" parent="KQztfbYuIWHAS5Uq-7fM-19">
          <mxGeometry x="60.06518276762295" y="419.2155555555553" width="369.8744769874477" height="35.38888888888889" as="geometry" />
        </mxCell>
        <mxCell id="aOK3zNNQjRz0KE04rkdm-76" value="+ getCoordinatorsOnEvent(int : eventId) : List&lt;EventCoordinator&gt;" style="text;align=left;verticalAlign=top;spacingLeft=4;spacingRight=4;overflow=hidden;rotatable=0;points=[[0,0.5],[1,0.5]];portConstraint=eastwest;" vertex="1" parent="KQztfbYuIWHAS5Uq-7fM-19">
          <mxGeometry x="60.06896328177576" y="454.60333333333324" width="369.87078152753105" height="35.38888888888889" as="geometry" />
        </mxCell>
        <mxCell id="aOK3zNNQjRz0KE04rkdm-77" value="+ login(String : username, String password) : Admin" style="text;align=left;verticalAlign=top;spacingLeft=4;spacingRight=4;overflow=hidden;rotatable=0;points=[[0,0.5],[1,0.5]];portConstraint=eastwest;" vertex="1" parent="KQztfbYuIWHAS5Uq-7fM-19">
          <mxGeometry x="60.110143405999374" y="489.98833333333334" width="369.87078152753105" height="35.38888888888889" as="geometry" />
        </mxCell>
        <mxCell id="aOK3zNNQjRz0KE04rkdm-85" value="+ getCustomers() : List&lt;Customer&gt;" style="text;align=left;verticalAlign=top;spacingLeft=4;spacingRight=4;overflow=hidden;rotatable=0;points=[[0,0.5],[1,0.5]];portConstraint=eastwest;" vertex="1" parent="KQztfbYuIWHAS5Uq-7fM-19">
          <mxGeometry x="892.317857142857" y="277.65111111111133" width="369.87142857142857" height="35.38888888888889" as="geometry" />
        </mxCell>
        <mxCell id="aOK3zNNQjRz0KE04rkdm-88" value="+ getCustomers() : List&lt;Customer&gt;" style="text;align=left;verticalAlign=top;spacingLeft=4;spacingRight=4;overflow=hidden;rotatable=0;points=[[0,0.5],[1,0.5]];portConstraint=eastwest;" vertex="1" parent="KQztfbYuIWHAS5Uq-7fM-19">
          <mxGeometry x="892.317857142857" y="313.0361111111113" width="369.87142857142857" height="35.38888888888889" as="geometry" />
        </mxCell>
      </root>
    </mxGraphModel>
  </diagram>
</mxfile>
